<!-- Generated by IcoMoon.io -->
<svg version="1.1" xmlns="http://www.w3.org/2000/svg" width="1138" height="1024" viewBox="0 0 1138 1024">
<title></title>
<g id="icomoon-ignore">
</g>
<path fill="#afb1b8" d="M1137.778 159.232c-39.113 17.541-84.489 30.477-132.010 36.555l-2.418 0.252c48.358-29.034 84.685-73.885 102.163-127.27l0.465-1.64c-42.577 25.688-92.133 45.27-144.924 55.93l-2.988 0.504c-42.659-45.472-103.127-73.8-170.212-73.8-128.786 0-233.188 104.402-233.188 233.188 0 0.045 0 0.090 0 0.136v-0.007c0 18.489 1.536 36.295 5.404 53.191-193.934-9.444-365.511-102.4-480.768-243.94-20.054 33.748-31.956 74.379-32.085 117.78v0.037c0 80.782 41.643 152.405 103.595 193.877-38.8-1.069-74.925-11.567-106.461-29.27l1.16 0.598v2.56c0.16 112.483 79.551 206.378 185.347 228.875l1.533 0.273c-17.795 4.882-38.227 7.687-59.314 7.687-0.647 0-1.294-0.003-1.94-0.008l0.099 0.001c-14.905 0-29.98-0.853-44.146-3.982 30.208 92.388 115.94 160.313 217.941 162.475-78.747 62.069-179.393 99.556-288.795 99.556-0.15 0-0.301 0-0.451 0h0.023c-0.655 0.004-1.429 0.006-2.204 0.006-18.895 0-37.509-1.201-55.77-3.531l2.166 0.226c100.493 65.636 223.536 104.679 355.698 104.679 0.75 0 1.5-0.001 2.25-0.004h-0.117c429.227 0 663.893-355.556 663.893-663.78 0-10.24-0.341-20.252-0.853-30.151 46.175-33.269 84.994-73.374 115.851-119.278l1.056-1.667z"></path>
</svg>
